#N canvas 825 33 873 829 10;
#X obj 48 107 receive fromGUI;
#X obj 51 132 route list;
#X obj 49 85 send toGUI;
#X obj 49 12 loadbang;
#X floatatom 183 223 5 0 0 0 - - -;
#X obj 141 420 mtof;
#X obj 183 246 sel 0;
#X obj 79 723 dac~;
#X obj 141 391 +;
#X obj 211 687 loadbang;
#X obj 214 357 t b f;
#X obj 35 363 send toGUI;
#X obj 70 551 *~;
#X obj 210 275 array get finpos;
#X obj 211 802 array set finpos;
#N canvas 0 50 450 379 adder 0;
#X obj 60 33 inlet;
#X obj 99 30 inlet;
#X obj 147 31 inlet;
#X obj 195 32 inlet;
#X obj 239 34 inlet;
#X obj 20 27 inlet;
#X obj 297 35 inlet;
#X obj 66 95 t b f;
#X obj 105 94 t b f;
#X obj 142 93 t b f;
#X obj 181 94 t b f;
#X obj 223 93 t b f;
#X obj 263 94 t b f;
#X obj 35 120 +;
#X obj 66 71 * 2;
#X obj 35 156 +;
#X obj 105 71 * 4;
#X obj 141 71 * 8;
#X obj 176 72 * 16;
#X obj 259 72 * 64;
#X obj 35 181 +;
#X obj 34 210 +;
#X obj 33 241 +;
#X obj 36 268 +;
#X obj 217 71 * 32;
#X obj 36 309 outlet;
#X connect 0 0 14 0;
#X connect 1 0 16 0;
#X connect 2 0 17 0;
#X connect 3 0 18 0;
#X connect 4 0 24 0;
#X connect 5 0 13 0;
#X connect 6 0 19 0;
#X connect 7 0 13 0;
#X connect 7 1 13 1;
#X connect 8 0 15 0;
#X connect 8 1 15 1;
#X connect 9 0 20 0;
#X connect 9 1 20 1;
#X connect 10 0 21 0;
#X connect 10 1 21 1;
#X connect 11 0 22 0;
#X connect 11 1 22 1;
#X connect 12 0 23 0;
#X connect 12 1 23 1;
#X connect 13 0 15 0;
#X connect 14 0 7 0;
#X connect 15 0 20 0;
#X connect 16 0 8 0;
#X connect 17 0 9 0;
#X connect 18 0 10 0;
#X connect 19 0 12 0;
#X connect 20 0 21 0;
#X connect 21 0 22 0;
#X connect 22 0 23 0;
#X connect 23 0 25 0;
#X connect 24 0 11 0;
#X restore 183 198 pd adder;
#X f 35;
#X msg 176 391 0 20;
#X msg 212 391 1 20;
#X msg 22 236 \$1 20;
#X obj 22 551 line~;
#X obj 137 517 line~;
#X obj 210 300 t f;
#X obj 210 329 sel 0;
#N canvas 1239 343 520 630 reverbSend~ 0;
#X obj 225 33 inlet;
#X obj 267 157 line~;
#X msg 267 129 \$1 20;
#X obj 98 198 rev3~, f 20;
#X obj 132 36 loadbang;
#X msg 193 125 2000;
#X obj 115 230 +~;
#X obj 161 152 + 40;
#X obj 195 74 * 45;
#X obj 123 316 *~;
#X obj 177 226 +~;
#X obj 200 315 *~;
#X obj 69 199 -~;
#X msg 100 83 1;
#X obj 96 115 sig~ 1;
#X msg 129 153 100;
#X obj 62 376 +~;
#X obj 134 373 +~;
#X text 222 14 reberb level (d/w \, ammount);
#X obj 133 419 outlet~;
#X obj 62 420 outlet~;
#X obj 17 314 *~;
#X obj 26 35 inlet~;
#X msg 234 124 40;
#X obj 46 316 *~;
#X text 38 10 dry signals;
#X obj 71 35 inlet~;
#X connect 0 0 8 0;
#X connect 0 0 2 0;
#X connect 1 0 9 1;
#X connect 1 0 11 1;
#X connect 1 0 12 1;
#X connect 2 0 1 0;
#X connect 3 0 6 0;
#X connect 3 1 6 1;
#X connect 3 2 10 0;
#X connect 3 3 10 1;
#X connect 4 0 15 0;
#X connect 4 0 5 0;
#X connect 4 0 23 0;
#X connect 4 0 13 0;
#X connect 5 0 3 4;
#X connect 6 0 9 0;
#X connect 7 0 3 3;
#X connect 8 0 7 0;
#X connect 9 0 16 1;
#X connect 10 0 11 0;
#X connect 11 0 17 1;
#X connect 12 0 21 1;
#X connect 12 0 24 1;
#X connect 13 0 14 0;
#X connect 14 0 12 0;
#X connect 15 0 3 2;
#X connect 16 0 20 0;
#X connect 17 0 19 0;
#X connect 21 0 16 0;
#X connect 22 0 21 0;
#X connect 22 0 3 0;
#X connect 23 0 3 5;
#X connect 24 0 17 0;
#X connect 26 0 3 1;
#X connect 26 0 24 0;
#X restore 80 683 pd reverbSend~;
#N canvas 552 293 453 442 FMosc~ 0;
#X obj 56 113 line~;
#X msg 56 75 \$1 5;
#X obj 57 168 phasor~;
#X obj 58 272 cos~;
#X obj 111 166 osc~;
#X obj 58 245 +~;
#X obj 162 65 * 1.33421;
#X obj 162 86 + 0.08;
#X obj 162 134 line~;
#X msg 162 107 \$1 20;
#X obj 111 194 *~;
#X obj 56 35 inlet;
#X obj 162 36 inlet;
#X text 56 14 frequency;
#X text 159 17 tone (FM ammount);
#X obj 58 344 outlet~;
#X obj 59 306 lop~ 2000;
#X connect 0 0 2 0;
#X connect 0 0 4 0;
#X connect 1 0 0 0;
#X connect 2 0 5 0;
#X connect 3 0 16 0;
#X connect 4 0 10 0;
#X connect 5 0 3 0;
#X connect 6 0 7 0;
#X connect 7 0 9 0;
#X connect 8 0 10 1;
#X connect 9 0 8 0;
#X connect 10 0 5 1;
#X connect 11 0 1 0;
#X connect 12 0 6 0;
#X connect 16 0 15 0;
#X restore 70 516 pd FMosc~;
#N canvas 713 111 450 348 delaySend~ 0;
#X obj 15 12 inlet~;
#X obj 193 18 inlet;
#X obj 272 21 inlet;
#X obj 190 114 line~;
#X msg 194 83 \$1 20;
#X obj 32 49 +~;
#X msg 272 140 \$1 20;
#X obj 194 55 * 0.5;
#X obj 34 165 -~ 0.5;
#X obj 21 222 *~;
#X obj 69 301 outlet~;
#X obj 216 304 outlet~;
#X obj 126 232 *~;
#X obj 70 273 +~;
#X obj 243 236 *~;
#X obj 215 277 +~;
#X obj 272 167 line~;
#X obj 32 75 delwrite~ \$0-delay1 1000;
#X obj 261 198 delread4~ \$0-delay1 300;
#X obj 262 273 delwrite~ \$0-delay2 1000;
#X obj 84 191 delread4~ \$0-delay2 600;
#X obj 272 115 + 10;
#X obj 272 87 * 1490;
#X obj 272 65 pow 2;
#X obj 272 41 t f b;
#X msg 378 136 clear;
#X connect 0 0 5 0;
#X connect 0 0 9 0;
#X connect 1 0 7 0;
#X connect 2 0 24 0;
#X connect 3 0 8 0;
#X connect 3 0 12 1;
#X connect 3 0 14 0;
#X connect 4 0 3 0;
#X connect 5 0 17 0;
#X connect 6 0 16 0;
#X connect 7 0 4 0;
#X connect 8 0 9 1;
#X connect 9 0 13 0;
#X connect 9 0 15 0;
#X connect 12 0 13 1;
#X connect 12 0 5 1;
#X connect 13 0 10 0;
#X connect 14 0 15 1;
#X connect 14 0 19 0;
#X connect 15 0 11 0;
#X connect 16 0 18 0;
#X connect 16 0 20 0;
#X connect 18 0 14 1;
#X connect 20 0 12 0;
#X connect 21 0 6 0;
#X connect 22 0 21 0;
#X connect 23 0 22 0;
#X connect 24 0 23 0;
#X connect 24 1 25 0;
#X connect 25 0 17 0;
#X connect 25 0 19 0;
#X restore 81 654 pd delaySend~;
#N canvas 628 557 450 300 tremolo~ 0;
#X obj 47 28 inlet~;
#X obj 47 245 outlet~;
#X obj 205 30 inlet;
#X obj 129 29 inlet;
#X obj 187 138 osc~;
#X msg 129 57 \$1 20;
#X obj 129 82 line~;
#X floatatom 233 163 5 0 0 0 - - -;
#X obj 138 189 *~;
#X obj 70 215 *~;
#X obj 205 105 + 0.5;
#X obj 205 82 * 49.5;
#X obj 205 56 pow 2;
#X obj 139 217 +~;
#X obj 181 195 *~ -1;
#X obj 178 225 +~ 1;
#X connect 0 0 9 0;
#X connect 2 0 12 0;
#X connect 3 0 5 0;
#X connect 4 0 8 1;
#X connect 5 0 6 0;
#X connect 6 0 8 0;
#X connect 6 0 14 0;
#X connect 8 0 13 0;
#X connect 9 0 1 0;
#X connect 10 0 4 0;
#X connect 10 0 7 0;
#X connect 11 0 10 0;
#X connect 12 0 11 0;
#X connect 13 0 9 1;
#X connect 14 0 15 0;
#X connect 15 0 13 1;
#X restore 57 618 pd tremolo~;
#X obj 211 664 array define -yrange 0 128 -k finpos 128;
#A 0 0 83 0 0 0 0 0 0 0 0 0 0 0 0 71 71 0 0 90 0 0 0 0 0 0 0 0 0 0
0 0 0 82 82 82 95 91 91 83 0 0 0 83 0 83 0 92 0 84 84 84 84 84 84 84
84 0 83 0 0 70 83 84 83 81 81 0 0 0 0 0 0 0 0 93 0 88 0 0 0 80 0 89
89 0 94 0 0 88 88 89 89 68 0 68 70 79 79 0 0 0 0 0 0 0 0 0 0 86 78
87 78 77 77 0 0 0 77 76 77 76 0 0 0 74 73 72 69;
#X obj 141 195 - 3;
#X msg 35 339 list /labelOctave \$1;
#X msg 211 715 0 83 0 0 0 0 0 0 0 0 0 0 0 0 71 71 0 0 90 0 0 0 0 0
0 0 0 0 0 0 0 0 82 82 82 95 91 91 83 0 0 0 83 0 83 0 92 0 84 84 84
84 84 84 84 84 0 83 0 0 70 83 84 83 81 81 0 0 0 0 0 0 0 0 93 0 88 0
0 0 80 0 89 89 0 94 0 0 88 88 89 89 68 0 68 70 79 79 0 0 0 0 0 0 0
0 0 0 86 78 87 78 77 77 0 0 0 77 76 77 76 0 0 0 74 73 72 69;
#X obj 70 488 *;
#X obj 70 439 pow 2;
#X obj 70 462 t b f;
#X msg 70 414 2;
#X obj 69 386 t b f;
#X msg 49 41 list /Volume 0.5 \, list /Tone 0 \, list /delayLevel 0.15
\, list /delayTime 0.3 \, list /Reverb 0.25 \, list /Tremolo 0.1 \,
list /Tremolofreq 0.3 \, list /Octave 4 \, list /Key 3, f 83;
#X obj 98 196 - 4;
#X obj 56 165 route /Volume /Octave /Key /b1 /b2 /b3 /b4 /b5 /b6 /b7
/Tone /Tremolo /Tremolofreq /delayLevel /delayTime /Reverb, f 114
;
#N canvas 670 412 450 300 setKey 0;
#X obj 40 75 sel 0 1 2 3 4 5 6 7 8 9 10 11;
#X obj 40 28 inlet;
#X obj 105 257 outlet;
#X msg 40 96 symbol A;
#X msg 54 115 symbol A#;
#X msg 68 137 symbol B;
#X msg 82 157 symbol C;
#X msg 97 176 symbol C#;
#X msg 111 197 symbol D;
#X msg 139 217 symbol E;
#X msg 125 236 symbol D#;
#X msg 154 159 symbol F;
#X msg 168 138 symbol F#;
#X msg 182 119 symbol G;
#X msg 196 99 symbol G#;
#X connect 0 0 3 0;
#X connect 0 1 4 0;
#X connect 0 2 5 0;
#X connect 0 3 6 0;
#X connect 0 4 7 0;
#X connect 0 5 8 0;
#X connect 0 6 10 0;
#X connect 0 7 9 0;
#X connect 0 8 11 0;
#X connect 0 9 12 0;
#X connect 0 10 13 0;
#X connect 0 11 14 0;
#X connect 1 0 0 0;
#X connect 3 0 2 0;
#X connect 4 0 2 0;
#X connect 5 0 2 0;
#X connect 6 0 2 0;
#X connect 7 0 2 0;
#X connect 8 0 2 0;
#X connect 9 0 2 0;
#X connect 10 0 2 0;
#X connect 11 0 2 0;
#X connect 12 0 2 0;
#X connect 13 0 2 0;
#X connect 14 0 2 0;
#X restore 82 254 pd setKey;
#X msg 57 317 list /labelKey \$1;
#X obj 36 581 *~;
#N canvas 1147 537 358 407 midoutput 1;
#X obj 253 62 loadbang;
#X obj 149 98 value note-num;
#X obj 122 67 t f b;
#X floatatom 149 124 5 0 0 0 - - -;
#X msg 253 89 \; note-num 0;
#X obj 147 149 sel 0;
#X msg 174 179 \$1 0;
#X obj 92 150 sel 0;
#X obj 24 217 value note-num;
#X msg 119 179 \$1 100;
#X obj 65 124 t f f;
#X obj 122 26 inlet;
#X msg 119 217 list /note \$1 \$2;
#X obj 119 261 send toNetwork;
#X msg 251 256 83 0;
#X msg 251 220 set \$1 \$2;
#X connect 0 0 4 0;
#X connect 1 0 3 0;
#X connect 2 0 10 0;
#X connect 2 1 1 0;
#X connect 3 0 5 0;
#X connect 5 1 6 0;
#X connect 6 0 12 0;
#X connect 6 0 15 0;
#X connect 7 1 9 0;
#X connect 9 0 12 0;
#X connect 9 0 15 0;
#X connect 10 0 8 0;
#X connect 10 1 7 0;
#X connect 11 0 2 0;
#X connect 12 0 13 0;
#X connect 15 0 14 0;
#X restore 412 486 pd midoutput;
#X msg 416 433 0;
#X connect 0 0 1 0;
#X connect 1 0 38 0;
#X connect 3 0 36 0;
#X connect 4 0 6 0;
#X connect 5 0 31 0;
#X connect 6 0 16 0;
#X connect 6 0 43 0;
#X connect 6 1 13 0;
#X connect 8 0 5 0;
#X connect 8 0 42 0;
#X connect 9 0 30 0;
#X connect 10 0 8 0;
#X connect 10 0 17 0;
#X connect 10 1 8 1;
#X connect 12 0 41 1;
#X connect 13 0 21 0;
#X connect 15 0 4 0;
#X connect 16 0 20 0;
#X connect 17 0 20 0;
#X connect 18 0 19 0;
#X connect 19 0 41 0;
#X connect 20 0 12 1;
#X connect 21 0 22 0;
#X connect 22 1 10 0;
#X connect 23 0 7 0;
#X connect 23 1 7 1;
#X connect 24 0 12 0;
#X connect 25 0 23 0;
#X connect 25 1 23 1;
#X connect 26 0 25 0;
#X connect 28 0 8 0;
#X connect 29 0 11 0;
#X connect 30 0 14 0;
#X connect 31 0 24 0;
#X connect 32 0 33 0;
#X connect 33 0 31 0;
#X connect 33 1 31 1;
#X connect 34 0 32 0;
#X connect 35 0 34 0;
#X connect 35 1 32 1;
#X connect 36 0 2 0;
#X connect 37 0 29 0;
#X connect 37 0 35 0;
#X connect 38 0 18 0;
#X connect 38 1 37 0;
#X connect 38 2 28 0;
#X connect 38 2 39 0;
#X connect 38 3 15 0;
#X connect 38 4 15 1;
#X connect 38 5 15 2;
#X connect 38 6 15 3;
#X connect 38 7 15 4;
#X connect 38 8 15 5;
#X connect 38 9 15 6;
#X connect 38 10 24 1;
#X connect 38 11 26 1;
#X connect 38 12 26 2;
#X connect 38 13 25 1;
#X connect 38 14 25 2;
#X connect 38 15 23 2;
#X connect 39 0 40 0;
#X connect 40 0 11 0;
#X connect 41 0 26 0;
#X connect 43 0 42 0;
